PathFileType	4	(X/Y/Z)	C:/Users/CLatella/Desktop/xsens/3Novembre/Meri/Meri-020.trc	
DataRate	CameraRate	NumFrames	NumMarkers	Units	OrigDataRate	OrigDataStartFrame	OrigNumFrames	
240.00	240.00	4	64	mm	240.00	1	1238	
Frame#	Time	pHipOrigin			pRightASI			pLeftASI			pRightCSI			pLeftCSI			pRightIschialTub			pLeftIschialTub			pSacrum			pL5SpinalProcess			pL3SpinalProcess			pT12SpinalProcess			pPX			pIJ			pT4SpinalProcess			pT8SpinalProcess			pC7SpinalProcess			pTopOfHead			pRightAuricularis			pLeftAuricularis			pBackOfHead			pRightAcromion			pLeftAcromion			pRightArmLatEpicondyle			pRightArmMedEpicondyle			pLeftArmLatEpicondyle			pLeftArmMedEpicondyle			pRightUlnarStyloid			pRightRadialStyloid			pRightOlecranon			pLeftUlnarStyloid			pLeftRadialStyloid			pLeftOlecranon			pRightTopOfHand			pRightPinky			pRightBallHand			pLeftTopOfHand			pLeftPinky			pLeftBallHand			pRightGreaterTrochanter			pRightKneeLatEpicondyle			pRightKneeMedEpicondyle			pRightPatella			pLeftGreaterTrochanter			pLeftKneeLatEpicondyle			pLeftKneeMedEpicondyle			pLeftPatella			pRightLatMalleolus			pRightMedMalleolus			pRightTibialTub			pLeftLatMalleolus			pLeftMedMalleolus			pLeftTibialTub			pRightHeelFoot			pRightFirstMetatarsal			pRightFifthMetatarsal			pRightPivotFoot			pRightHeelCenter			pRightToe			pLeftHeelFoot			pLeftFirstMetatarsal			pLeftFifthMetatarsal			pLeftPivotFoot			pLeftHeelCenter			pLeftToe			
		X1	Y1	Z1	X2	Y2	Z2	X3	Y3	Z3	X4	Y4	Z4	X5	Y5	Z5	X6	Y6	Z6	X7	Y7	Z7	X8	Y8	Z8	X9	Y9	Z9	X10	Y10	Z10	X11	Y11	Z11	X12	Y12	Z12	X13	Y13	Z13	X14	Y14	Z14	X15	Y15	Z15	X16	Y16	Z16	X17	Y17	Z17	X18	Y18	Z18	X19	Y19	Z19	X20	Y20	Z20	X21	Y21	Z21	X22	Y22	Z22	X23	Y23	Z23	X24	Y24	Z24	X25	Y25	Z25	X26	Y26	Z26	X27	Y27	Z27	X28	Y28	Z28	X29	Y29	Z29	X30	Y30	Z30	X31	Y31	Z31	X32	Y32	Z32	X33	Y33	Z33	X34	Y34	Z34	X35	Y35	Z35	X36	Y36	Z36	X37	Y37	Z37	X38	Y38	Z38	X39	Y39	Z39	X40	Y40	Z40	X41	Y41	Z41	X42	Y42	Z42	X43	Y43	Z43	X44	Y44	Z44	X45	Y45	Z45	X46	Y46	Z46	X47	Y47	Z47	X48	Y48	Z48	X49	Y49	Z49	X50	Y50	Z50	X51	Y51	Z51	X52	Y52	Z52	X53	Y53	Z53	X54	Y54	Z54	X55	Y55	Z55	X56	Y56	Z56	X57	Y57	Z57	X58	Y58	Z58	X59	Y59	Z59	X60	Y60	Z60	X61	Y61	Z61	X62	Y62	Z62	X63	Y63	Z63	X64	Y64	Z64	

1	0.000	212.87101	92.87364	930.24332	269.78061	-26.42052	1010.96152	267.57053	213.12216	1011.21266	226.83471	-6.12795	1078.41923	225.07669	191.87524	1078.62014	166.15793	42.99613	877.50274	165.25381	142.04795	877.60320	142.80139	92.22067	945.91481	170.82924	92.67273	1020.90688	164.24923	91.96952	1125.03185	161.98892	91.16585	1217.00137	301.87702	88.95577	1300.18080	301.87702	87.29821	1410.88578	167.16251	88.80509	1389.73932	163.79716	90.06081	1308.66952	169.32237	89.05623	1441.07348	344.22017	76.90078	1628.93039	269.52946	17.58019	1561.82429	282.94064	147.42247	1559.16214	231.30510	87.64982	1584.72877	205.13573	-87.70005	1389.28726	198.60594	264.50655	1399.83537	343.36627	-59.72242	1103.13196	326.53952	-1.10504	1100.62050	339.19725	236.52893	1113.17778	316.04163	180.42300	1107.45166	420.76935	-13.46140	888.75407	453.21736	15.11897	907.38907	319.05538	-47.01446	1093.33728	415.84689	204.48275	897.44370	440.25825	166.81091	911.65855	315.99140	229.54708	1104.08631	546.04077	11.70339	765.89364	482.90277	-22.65333	806.12716	443.27199	-6.22841	860.67599	546.84444	221.66111	785.83460	483.00323	241.65230	834.00433	437.94771	207.44627	874.18762	214.27743	-55.75432	902.81822	190.56929	-35.71291	522.93538	190.11722	37.92299	521.12713	231.60648	3.81741	522.33263	211.11300	242.15459	904.47578	187.05325	229.64754	524.29156	188.35920	156.01165	520.92621	228.99456	191.07158	522.78469	151.44080	-56.75891	100.40801	161.88846	4.97268	95.08373	253.40592	-9.09147	483.95758	154.40432	248.43323	100.00618	156.76509	185.74729	95.83716	251.74835	195.19036	484.00781	116.98362	-21.34738	4.72154	264.70747	-17.42950	3.61650	251.79858	-82.87805	5.87681	277.01360	-52.94149	4.77177	155.81073	-28.88174	8.99101	352.40751	-67.85954	3.76718	112.26209	213.02170	6.47956	259.33295	199.91190	0.20092	250.54286	266.06365	1.30596	273.79894	234.62022	0.05023	151.64172	218.19530	9.19193	349.89606	244.81674	-3.86764 
2	0.004	212.87101	92.87364	930.24332	269.78061	-26.42052	1010.96152	267.57053	213.12216	1011.21266	226.83471	-6.12795	1078.41923	225.07669	191.87524	1078.62014	166.15793	42.99613	877.50274	165.25381	142.04795	877.60320	142.80139	92.22067	945.91481	170.82924	92.67273	1020.90688	164.24923	91.96952	1125.03185	161.98892	91.11563	1217.00137	301.87702	88.90554	1300.13057	301.87702	87.29821	1410.88578	167.21274	88.80509	1389.73932	163.79716	90.01058	1308.66952	169.32237	89.05623	1441.07348	344.22017	76.90078	1628.88016	269.57969	17.58019	1561.82429	282.94064	147.37224	1559.11192	231.35533	87.59959	1584.67854	205.13573	-87.70005	1389.28726	198.60594	264.50655	1399.83537	343.36627	-59.72242	1103.13196	326.53952	-1.10504	1100.62050	339.19725	236.52893	1113.17778	316.04163	180.37277	1107.45166	420.76935	-13.46140	888.75407	453.21736	15.06874	907.38907	319.05538	-47.06469	1093.33728	415.84689	204.48275	897.39348	440.25825	166.81091	911.60832	315.99140	229.49685	1104.08631	546.09100	11.70339	765.89364	482.90277	-22.65333	806.12716	443.27199	-6.22841	860.67599	546.84444	221.61088	785.83460	483.00323	241.60207	834.00433	437.94771	207.44627	874.18762	214.27743	-55.75432	902.81822	190.56929	-35.71291	522.93538	190.11722	37.92299	521.12713	231.60648	3.81741	522.33263	211.11300	242.15459	904.47578	187.05325	229.59731	524.29156	188.30897	156.01165	520.92621	228.99456	191.07158	522.78469	151.44080	-56.75891	100.35778	161.88846	4.97268	95.08373	253.40592	-9.14170	483.95758	154.40432	248.43323	100.00618	156.76509	185.74729	95.83716	251.74835	195.19036	484.00781	116.98362	-21.34738	4.72154	264.70747	-17.42950	3.61650	251.79858	-82.87805	5.87681	277.01360	-52.94149	4.77177	155.81073	-28.88174	8.99101	352.40751	-67.85954	3.76718	112.26209	212.97147	6.47956	259.38318	200.01236	0.20092	250.49263	266.16411	1.30596	273.79894	234.72068	0.00000	151.64172	218.19530	9.19193	349.89606	244.96742	-3.86764 
3	0.008	212.87101	92.87364	930.24332	269.78061	-26.42052	1010.96152	267.57053	213.12216	1011.21266	226.88494	-6.12795	1078.41923	225.07669	191.87524	1078.62014	166.15793	42.99613	877.50274	165.25381	141.99773	877.60320	142.80139	92.22067	945.91481	170.82924	92.67273	1020.90688	164.24923	91.96952	1125.03185	161.98892	91.11563	1217.00137	301.87702	88.90554	1300.13057	301.87702	87.29821	1410.88578	167.21274	88.80509	1389.73932	163.84739	90.01058	1308.66952	169.32237	89.00600	1441.07348	344.27040	76.85056	1628.88016	269.57969	17.52996	1561.82429	282.99087	147.37224	1559.11192	231.35533	87.59959	1584.67854	205.13573	-87.70005	1389.28726	198.65617	264.50655	1399.83537	343.36627	-59.72242	1103.13196	326.53952	-1.15527	1100.62050	339.19725	236.52893	1113.17778	316.04163	180.37277	1107.45166	420.76935	-13.46140	888.75407	453.21736	15.06874	907.38907	319.05538	-47.06469	1093.28705	415.84689	204.43252	897.39348	440.25825	166.76068	911.60832	315.99140	229.49685	1104.08631	546.09100	11.70339	765.89364	482.90277	-22.70356	806.12716	443.27199	-6.22841	860.67599	546.84444	221.61088	785.83460	483.00323	241.60207	834.00433	437.89748	207.39604	874.18762	214.27743	-55.75432	902.81822	190.56929	-35.71291	522.93538	190.11722	37.92299	521.12713	231.60648	3.76718	522.33263	211.11300	242.15459	904.47578	187.05325	229.59731	524.29156	188.30897	156.01165	520.92621	228.99456	191.07158	522.78469	151.44080	-56.75891	100.35778	161.88846	4.97268	95.08373	253.40592	-9.14170	483.95758	154.40432	248.43323	100.00618	156.76509	185.74729	95.83716	251.74835	195.19036	484.00781	116.98362	-21.34738	4.72154	264.70747	-17.42950	3.61650	251.79858	-82.87805	5.87681	277.01360	-52.94149	4.77177	155.81073	-28.88174	8.99101	352.40751	-67.85954	3.76718	112.26209	212.92124	6.47956	259.38318	200.06259	0.20092	250.49263	266.16411	1.30596	273.79894	234.77091	0.00000	151.64172	218.19530	9.19193	349.84583	245.06788	-3.86764 
4	0.013	212.87101	92.87364	930.24332	269.78061	-26.42052	1010.96152	267.57053	213.12216	1011.21266	226.88494	-6.12795	1078.41923	225.07669	191.87524	1078.62014	166.15793	42.99613	877.50274	165.25381	141.99773	877.60320	142.80139	92.22067	945.91481	170.82924	92.67273	1020.90688	164.24923	91.96952	1125.03185	161.98892	91.11563	1217.00137	301.92725	88.90554	1300.13057	301.92725	87.24798	1410.88578	167.21274	88.80509	1389.73932	163.84739	90.01058	1308.66952	169.37260	89.00600	1441.07348	344.32062	76.85056	1628.88016	269.62992	17.52996	1561.82429	282.99087	147.37224	1559.11192	231.40556	87.59959	1584.67854	205.18596	-87.70005	1389.28726	198.65617	264.50655	1399.83537	343.36627	-59.72242	1103.13196	326.53952	-1.15527	1100.62050	339.19725	236.47870	1113.17778	316.04163	180.32254	1107.45166	420.76935	-13.46140	888.75407	453.21736	15.06874	907.38907	319.05538	-47.06469	1093.28705	415.84689	204.43252	897.39348	440.25825	166.76068	911.60832	315.99140	229.49685	1104.08631	546.09100	11.70339	765.89364	482.90277	-22.70356	806.12716	443.27199	-6.22841	860.67599	546.84444	221.56065	785.83460	483.00323	241.55184	834.00433	437.89748	207.39604	874.18762	214.27743	-55.75432	902.81822	190.56929	-35.71291	522.93538	190.11722	37.92299	521.12713	231.60648	3.76718	522.33263	211.11300	242.15459	904.47578	187.05325	229.59731	524.29156	188.30897	156.01165	520.92621	228.99456	191.07158	522.78469	151.44080	-56.75891	100.35778	161.88846	4.97268	95.08373	253.40592	-9.14170	483.95758	154.40432	248.43323	100.00618	156.76509	185.74729	95.83716	251.74835	195.19036	484.00781	116.98362	-21.34738	4.72154	264.70747	-17.42950	3.61650	251.79858	-82.87805	5.87681	277.01360	-52.94149	4.77177	155.81073	-28.88174	8.99101	352.40751	-67.85954	3.76718	112.26209	212.92124	6.47956	259.38318	200.06259	0.20092	250.49263	266.16411	1.30596	273.79894	234.77091	0.00000	151.64172	218.19530	9.19193	349.89606	245.01765	-3.86764 
